PathFileType	4	(X/Y/Z)	s01c0202.trc
DataRate	CameraRate	NumFrames	NumMarkers	Units	OrigDataRate	OrigDataStartFrame	OrigNumFrames
200	200	4	48	mm	200	1250	2000
Frame#	Time	racr			lacr			c7			jug			rlel			rdr			llel			ldr			s2			lic			ric			lasi			rasi			rpsi			lpsi			rgt			lgt			rth1			rth2			rth3			rth4			rlfc			rsh1			rsh2			rsh3			rsh4			rlmal			rmmal			rcal			rtoe			rmt5			lth1			lth2			lth4			lth3			llfc			lsh1			lsh2			lsh3			lsh4			llmal			lmmal			lcal			ltoe			lmt5			SBIKE			LBIKE			RBIKE			
		X1	Y1	Z1	X2	Y2	Z2	X3	Y3	Z3	X4	Y4	Z4	X5	Y5	Z5	X6	Y6	Z6	X7	Y7	Z7	X8	Y8	Z8	X9	Y9	Z9	X10	Y10	Z10	X11	Y11	Z11	X12	Y12	Z12	X13	Y13	Z13	X14	Y14	Z14	X15	Y15	Z15	X16	Y16	Z16	X17	Y17	Z17	X18	Y18	Z18	X19	Y19	Z19	X20	Y20	Z20	X21	Y21	Z21	X22	Y22	Z22	X23	Y23	Z23	X24	Y24	Z24	X25	Y25	Z25	X26	Y26	Z26	X27	Y27	Z27	X28	Y28	Z28	X29	Y29	Z29	X30	Y30	Z30	X31	Y31	Z31	X32	Y32	Z32	X33	Y33	Z33	X34	Y34	Z34	X35	Y35	Z35	X36	Y36	Z36	X37	Y37	Z37	X38	Y38	Z38	X39	Y39	Z39	X40	Y40	Z40	X41	Y41	Z41	X42	Y42	Z42	X43	Y43	Z43	X44	Y44	Z44	X45	Y45	Z45	X46	Y46	Z46	X47	Y47	Z47	X48	Y48	Z48	
1250	6.2500	532.559143	1247.519043	-69.212517	554.667419	1212.509033	-427.105652	523.051758	1349.327148	-255.649734	505.968384	1185.357666	-246.381851	463.412262	988.855530	49.481342	670.999207	885.497192	-35.264259	488.526123	969.607666	-569.833313	658.005127	871.417236	-422.729797	-6.359127	1147.119141	-258.513794	163.172302	1160.265625	-429.550110	136.869583	1158.191772	-94.372414	171.208267	1113.088867	-401.271851	167.008774	1114.161011	-121.669609	18.509472	1187.929932	-206.142365	20.870213	1188.058228	-311.461395	86.429504	1032.337280	-71.350235	127.397781	1039.623047	-451.242004	155.374649	918.699890	-48.772018	202.267685	850.733032	-52.640484	248.824738	773.546936	-62.113552	249.911621	879.898071	-61.726025	287.508057	664.139587	-80.733597	247.021072	553.300964	-50.325447	235.581879	469.277130	-56.324978	215.655350	383.406250	-69.086082	286.316956	462.196320	-88.703918	180.545502	262.879395	-93.921974	226.126541	275.112946	-166.487900	140.630554	243.824463	-147.265823	401.061798	173.995346	-131.220917	292.186401	158.271362	-63.116547	230.623260	977.379150	-445.164185	319.877289	971.640808	-445.178040	325.001465	1024.138062	-431.283905	402.674957	954.955627	-427.258118	491.801575	880.394775	-398.037140	394.779480	831.138489	-430.385254	330.466248	774.952942	-422.737457	264.286682	720.976868	-412.450317	367.826141	735.237244	-394.017029	170.646042	641.343872	-400.813385	195.611435	622.996155	-318.279053	126.117767	614.342407	-390.266541	296.016235	437.520630	-371.728516	206.112595	498.920105	-434.506592	-223.868225	893.316833	-251.680496	-12.581290	84.762085	-456.004639	-21.619078	80.715195	-55.933014	
1251	6.2550	534.471375	1247.879761	-71.668480	554.073853	1213.034668	-429.633148	523.778687	1349.775146	-257.763550	506.558441	1185.964600	-248.555344	464.020935	989.965027	49.049408	671.183960	885.700928	-35.496532	487.644440	969.435913	-570.760681	657.197815	871.321472	-423.784821	-6.713383	1148.391846	-257.577423	163.278259	1162.020142	-429.261444	138.213593	1158.741943	-94.586403	171.304047	1114.402344	-401.166473	167.466354	1114.772949	-121.628830	18.851299	1188.852539	-205.157120	21.067331	1188.948730	-310.396729	85.873505	1032.884033	-70.848389	127.287827	1041.350342	-451.088562	152.733002	919.039978	-47.594387	198.606888	850.280212	-51.237301	244.016724	772.431091	-60.326637	246.748627	878.807434	-59.973789	281.250427	662.571472	-78.741264	239.817047	551.856567	-48.850277	228.168015	467.888092	-55.094700	208.061264	382.029602	-68.116707	279.324829	460.705414	-86.670815	172.781418	261.987671	-93.005135	218.795761	273.615540	-165.373123	133.176865	244.306854	-146.743225	391.914917	168.352158	-131.545486	282.861023	155.001953	-63.211521	230.975998	980.245056	-444.927185	320.233643	976.027466	-445.226715	324.522827	1028.604614	-431.619904	403.360931	960.840332	-427.291626	495.549744	889.301575	-397.906738	398.002930	839.682434	-430.186127	334.876892	781.888000	-422.576141	269.980927	726.538330	-411.707153	373.059174	742.222656	-394.715759	177.100861	644.707153	-400.474823	202.265381	626.669861	-318.093475	132.679611	615.963013	-390.410797	306.519897	443.414001	-371.464172	215.459366	503.099457	-434.308533	-223.951584	893.331909	-251.667130	-12.588863	84.783157	-456.002289	-21.626373	80.734505	-55.925495	
1252	6.2600	536.371826	1248.091064	-74.116966	553.526978	1213.482178	-431.941925	524.490906	1350.235352	-259.962708	507.019073	1186.599976	-250.803391	464.753174	991.008484	48.554161	671.455078	885.760254	-35.876472	486.722351	969.341675	-571.734070	656.781311	871.649170	-424.584930	-6.557769	1149.318237	-256.769348	163.436310	1163.751587	-429.049805	139.369293	1159.575073	-94.700905	171.377213	1115.707397	-401.053589	167.872009	1115.391479	-121.535378	19.200851	1189.924683	-204.323395	21.248507	1189.932373	-309.441742	85.341042	1033.716064	-70.432777	127.268852	1043.204956	-451.019440	150.319687	919.754150	-46.429012	195.253510	850.338745	-49.845375	239.606873	771.840210	-58.401669	243.978333	878.155396	-58.058529	275.527985	661.555542	-76.795876	233.152069	551.140747	-47.422726	221.075531	467.268829	-53.879509	200.782654	381.614990	-67.098915	272.655762	459.803192	-84.737801	165.399429	261.866486	-92.593552	211.910904	272.970184	-164.234360	125.893974	245.634949	-146.306396	382.600677	163.156448	-131.839218	273.429626	152.488815	-63.265530	231.281967	983.001282	-444.703430	320.599701	980.068665	-444.994324	324.108826	1032.843506	-431.809937	404.085419	966.217651	-427.016968	496.995728	897.047974	-398.857147	401.337555	846.919556	-430.033386	339.127869	788.144348	-422.450989	275.208771	731.688110	-411.502899	378.132507	749.003296	-394.774719	183.616043	647.241455	-400.201874	208.819153	629.603271	-317.995483	135.619553	615.061340	-386.722168	317.179352	448.827026	-371.313690	225.196335	506.417603	-434.427002	-224.008667	893.335999	-251.668167	-12.606923	84.804573	-455.986298	-21.637636	80.771431	-55.911083	
1253	6.2650	538.266479	1248.160278	-76.545517	553.061707	1213.828735	-434.085815	525.248474	1350.503906	-262.017029	507.485138	1187.081543	-252.918182	465.566010	992.112793	48.172379	671.703186	885.891113	-36.194839	485.780457	969.237183	-572.691895	656.374390	871.992493	-425.327972	-6.406865	1150.616333	-256.165863	163.611984	1165.398315	-428.823059	139.825027	1161.158325	-93.688614	171.379517	1117.179810	-400.913055	168.169495	1116.156006	-121.353767	19.508162	1191.102539	-203.659775	21.356173	1191.178223	-308.689178	84.416710	1035.326050	-68.987236	127.314438	1045.144653	-451.139923	148.065002	920.661987	-45.414700	192.285629	850.801392	-48.415646	235.580444	771.899780	-56.389690	241.208435	878.195801	-56.149548	270.412292	661.168335	-74.814774	227.151978	551.216675	-46.101879	214.587570	467.474335	-52.679482	193.758286	381.912262	-66.206490	266.460419	459.447235	-82.912735	159.435760	261.442200	-93.734772	205.324570	273.091522	-163.153687	118.085091	248.837402	-144.661438	373.240601	158.515747	-132.075455	263.894287	150.550919	-63.339352	231.547531	985.651917	-444.500092	321.021393	983.907166	-444.825378	323.786102	1036.769531	-431.873993	404.747467	971.076599	-426.507233	498.659241	904.999268	-399.369446	404.281677	853.592957	-430.089630	343.189209	793.748596	-422.371490	280.348206	736.086487	-411.432495	383.082489	755.133911	-395.383240	190.082794	648.920959	-399.986023	215.232407	631.765686	-317.983612	140.726120	614.377808	-385.168091	327.904602	453.606293	-371.086761	234.812714	509.093719	-434.332947	-224.049667	893.341553	-251.676804	-12.612309	84.802666	-455.995789	-21.638597	80.781937	-55.926079	
